<svg width="18" height="20" viewBox="0 0 18 20" fill="none" xmlns="http://www.w3.org/2000/svg">
<path d="M8.75982 19.7629C8.79361 20.079 9.2064 20.079 9.24018 19.7629L9.52334 17.1113C9.88899 13.6873 12.3186 10.9878 15.4001 10.5815L17.7866 10.2669C18.0711 10.2293 18.0711 9.77067 17.7866 9.73313L15.4001 9.41851C12.3186 9.01224 9.88899 6.31269 9.52334 2.88873L9.24018 0.23709C9.2064 -0.0790291 8.79361 -0.0790291 8.75982 0.23709L8.47666 2.88873C8.11102 6.31269 5.68142 9.01224 2.59983 9.41851L0.213355 9.73313C-0.0711185 9.77067 -0.0711185 10.2293 0.213355 10.2669L2.59983 10.5815C5.68142 10.9878 8.11102 13.6873 8.47666 17.1113L8.75982 19.7629Z" fill="#F2994A"/>
</svg>
